<svg width="1065" height="753" xmlns="http://www.w3.org/2000/svg" xmlns:xlink="http://www.w3.org/1999/xlink" xml:space="preserve" overflow="hidden"><defs><clipPath id="clip0"><rect x="4859" y="395" width="1065" height="753"/></clipPath><linearGradient x1="0" y1="212.5" x2="515" y2="212.5" gradientUnits="userSpaceOnUse" spreadMethod="reflect" id="fill1"><stop offset="0" stop-color="#4DA6FF"/><stop offset="1" stop-color="#4DA6FF"/></linearGradient></defs><g clip-path="url(#clip0)" transform="translate(-4859 -395)"><text fill="#FFFFFF" font-family="OCR A Extended,OCR A Extended_MSFontService,sans-serif" font-weight="400" font-stretch="expanded" font-size="147" transform="matrix(1 0 0 1 4947.31 1029)">K2 NETWORK</text><path d="M5172.26 668 5369.28 668C5375.5 668 5380.54 673.196 5380.54 679.605L5380.54 720.023 5383.77 720.023 5383.77 720.023 5588 720.023 5587.8 720.355 5546.81 720.355 5505.98 720.355 5485.8 730.837 5466.08 741 5443.93 741 5391.32 741 5391.32 741 5281.56 741 5281.56 741 5172.26 741C5166.04 741 5161 735.804 5161 729.394L5161 679.605C5161 673.196 5166.04 668 5172.26 668Z" fill="#DCEAF7" fill-rule="evenodd"/><path d="M306.627 424.865C309.26 424.341 313.021 422.345 318.392 419.827 322.775 417.785 327.471 415.429 328.723 414.644 329.976 413.859 337.802 410.089 345.942 406.006 354.082 402.079 362.065 398.153 363.474 397.367 365.039 396.425 370.362 393.598 375.527 390.928 381.163 387.943 385.076 384.802 385.702 382.603 386.172 380.876 386.641 372.395 386.641 364.07 386.641 342.71 387.424 341.924 409.495 342.71 422.018 343.024 426.245 343.809 427.34 345.537 428.123 346.793 428.906 355.275 428.906 364.384 428.906 376.321 429.532 381.818 431.254 384.174 434.228 388.572 509.208 425.953 512.495 424.696 514.687 423.911 515 418.885 515 384.174 515 362.499 514.374 343.809 513.591 342.71 512.965 341.61 495.59 332.187 475.084 321.977 438.924 303.758 432.036 299.675 432.036 296.376 432.036 295.434 440.959 276.586 452.073 254.598L471.953 214.39 472.423 174.496C472.892 140.414 472.579 134.288 470.388 130.99L468.234 127.533 468.241 127.546 263.888 127.546C262.1 127.546 260.651 125.845 260.651 123.748L260.651 107.455C260.651 106.406 261.013 105.457 261.599 104.769L262.097 104.527 262.419 104.049C264.525 102.179 270.219 99.0276 282.076 93.1378 289.433 89.5255 296.634 85.2846 298.043 84.0282 300.234 81.8293 300.547 76.0181 300.547 41.4644 300.547 7.85318 300.234 1.25642 298.199 0.628146 295.225-0.628269 220.714 36.9096 217.27 41.3073 214.923 44.2915 214.453 48.6893 214.453 74.1333 214.453 86.1485 214.189 97.1921 213.859 102.559L213.735 104.15 213.892 104.929C213.892 109.351 213.892 113.774 213.892 118.196 213.892 120.441 212.985 122.473 211.519 123.944L210.726 124.481 210.696 124.55 210.017 125.118 207.281 126.591 207.317 126.659 159.091 152.62 159.025 152.496 158.413 152.822 156.424 153.968 133.932 166.076 132.692 166.426C127.821 167.382 112.823 168.292 90.6338 168.842 41.1688 170.255 43.8298 171.512 43.8298 147.795 43.8298 127.692 43.6733 127.849 66.684 128.477L84.3724 128.948 107.54 117.64C120.219 111.357 131.489 105.389 132.429 104.603 133.368 103.661 142.29 98.635 152.309 93.6091 164.831 87.1694 170.623 83.2429 171.249 81.044 172.502 76.6463 172.345 8.01022 171.249 3.61233 170.623 1.57061 169.527 0 168.432 0 165.771 0 92.1991 37.3807 88.9119 40.3649 86.5638 42.5638 86.0942 45.548 86.0942 61.8825 86.0942 72.4057 85.4681 81.8293 84.8419 82.9287 84.0593 83.8712 66.0578 93.6091 44.4559 104.446 23.0107 115.284 4.22645 125.65 2.81768 127.377 0.156627 130.519 0 136.958 0 213.448L0 296.376 3.44381 299.518C5.47873 301.245 25.0456 311.611 46.9605 322.449L86.877 342.395 168.745 342.395C222.28 342.395 251.708 341.767 253.743 340.825 256.404 339.254 256.717 337.37 256.717 322.606 256.717 311.454 257.5 304.701 258.909 301.874 260.631 298.575 267.518 294.335 289.12 283.654 304.46 276.115 318.392 269.204 320.114 268.262 332.637 261.194 378.815 238.734 380.536 238.734 385.859 238.734 386.641 242.19 386.641 267.791 386.641 281.612 386.172 294.492 385.702 296.376 384.919 298.889 375.527 304.544 345.473 319.621 323.714 330.616 304.774 340.668 303.365 341.924 300.86 344.28 300.547 348.364 300.547 384.174 300.547 413.525 300.058 423.611 304.354 424.863 304.998 425.051 305.75 425.04 306.627 424.865Z" fill="url(#fill1)" fill-rule="evenodd" transform="matrix(1 0 0 -1 5120 848)"/><path d="M21.0811 87.9983C33.5088 87.9983 37.2843 87.5228 39.644 85.3044 42.0038 83.2445 42.4757 80.2338 42.4757 67.8741 42.4757 47.7501 43.4195 46.7992 64.185 46.7992 72.5226 46.7992 80.5456 47.5915 81.8041 48.3838 83.5346 49.4931 84.3211 54.0884 84.9504 66.7649 86.0516 87.9983 86.0516 87.9983 107.446 87.9983 129.627 87.9983 128.998 88.632 128.998 66.1311 128.998 55.9898 128.212 46.4824 127.425 45.2146 126.324 43.4716 121.919 42.6794 108.547 42.3625 92.1868 41.7286 91.0856 41.5702 88.0966 37.7672 85.4223 34.2812 84.9504 31.2705 84.9504 18.9108 84.9504-0.104123 84.3211-0.579421 63.3984 0.212866 42.9476 1.00515 42.4757 1.48045 42.4757 21.446 42.4757 36.1826 42.3183 37.1333 38.5428 39.5102 35.7113 41.4118 30.9918 42.0455 20.4518 42.0455-0.470854 42.0455 0.000991532 41.4118 0.000991532 65.0219 0.000991532 82.1353 0.315679 84.8291 2.83268 86.2551 4.24847 87.206 12.5861 87.9983 21.0811 87.9983Z" fill="#0070C0" fill-rule="evenodd" transform="matrix(1 0 0 -1 5206 483)"/><path d="M18.3534 23.2991C3.6082 9.12778-1.30687 3.12039-0.0384741 1.88818 2.18128-0.268336 35.6354-1.03851 39.7576 0.963994 42.4531 2.50435 42.7701 4.35272 42.7701 19.9102 42.7701 47.1745 42.6116 47.1745 18.3534 23.2991Z" fill="#1A1A1A" fill-rule="evenodd" transform="matrix(1 0 0 -1 5314 677)"/></g></svg>