<svg width="24" height="24" viewBox="0 0 24 24" fill="none" xmlns="http://www.w3.org/2000/svg">
<path d="M1.8 20.4C1.305 20.4 0.88125 20.2237 0.52875 19.8712C0.17625 19.5187 0 19.095 0 18.6H4.2C3.705 18.6 3.28125 18.4237 2.92875 18.0712C2.57625 17.7187 2.4 17.295 2.4 16.8V5.39998C2.4 4.90498 2.57625 4.48123 2.92875 4.12873C3.28125 3.77623 3.705 3.59998 4.2 3.59998H19.8C20.295 3.59998 20.7187 3.77623 21.0712 4.12873C21.4237 4.48123 21.6 4.90498 21.6 5.39998V16.8C21.6 17.295 21.4237 17.7187 21.0712 18.0712C20.7187 18.4237 20.295 18.6 19.8 18.6H24C24 19.1 23.8237 19.525 23.4712 19.875C23.1187 20.225 22.695 20.4 22.2 20.4H1.8ZM11.9948 19.5C12.2483 19.5 12.4625 19.4142 12.6375 19.2427C12.8125 19.0712 12.9 18.8587 12.9 18.6052C12.9 18.3517 12.8142 18.1375 12.6427 17.9625C12.4712 17.7875 12.2587 17.7 12.0052 17.7C11.7517 17.7 11.5375 17.7857 11.3625 17.9572C11.1875 18.1287 11.1 18.3412 11.1 18.5947C11.1 18.8482 11.1858 19.0625 11.3573 19.2375C11.5288 19.4125 11.7413 19.5 11.9948 19.5ZM4.2 16.8H19.8V5.39998H4.2V16.8Z" fill="#5CC0F6"/>
</svg>
