<svg width="18" height="18" viewBox="0 0 18 18" fill="none" xmlns="http://www.w3.org/2000/svg">
<path d="M9 11L7 9L9 7L11 9L9 11ZM7.20833 5.79167L5.20833 3.79167L9 0L12.7917 3.79167L10.7917 5.79167L9 4L7.20833 5.79167ZM3.79167 12.7917L0 9L3.79167 5.20833L5.79167 7.20833L4 9L5.79167 10.7917L3.79167 12.7917ZM14.2083 12.7917L12.2083 10.7917L14 9L12.2083 7.20833L14.2083 5.20833L18 9L14.2083 12.7917ZM9 18L5.20833 14.2083L7.20833 12.2083L9 14L10.7917 12.2083L12.7917 14.2083L9 18Z" fill="#F15CDD"/>
</svg>
