<svg width="24" height="24" viewBox="0 0 24 24" fill="none" xmlns="http://www.w3.org/2000/svg">
<path d="M7.19999 21.6C6.53332 21.6 5.96665 21.3709 5.49999 20.9125C5.03332 20.4542 4.79999 19.9 4.79999 19.25V5.42502C4.79999 4.85836 4.98332 4.36252 5.34999 3.93752C5.71665 3.51252 6.18332 3.24169 6.74999 3.12502L15.6 1.27502V16.925L7.12624 18.7033C6.99207 18.7344 6.87082 18.8021 6.76249 18.9063C6.65415 19.0104 6.59999 19.125 6.59999 19.25C6.59999 19.4167 6.65999 19.55 6.77999 19.65C6.89999 19.75 7.03999 19.8 7.19999 19.8H17.3887V4.20002H19.2V21.6H7.19999ZM9.59999 16.325L13.8 15.425V3.50002L9.59999 4.37502V16.325ZM7.79999 16.7V4.77502L7.04999 4.92502C6.91665 4.95836 6.80832 5.01827 6.72499 5.10477C6.64165 5.19127 6.59999 5.29802 6.59999 5.42502V17C6.68332 16.9667 6.77082 16.9417 6.86249 16.925C6.95415 16.9084 7.04165 16.8834 7.12499 16.85L7.79999 16.7Z" fill="#C38C45"/>
</svg>
