<svg width="28" height="28" viewBox="0 0 28 28" fill="none" xmlns="http://www.w3.org/2000/svg">
<path d="M7.67083 12.8042L6.475 13.5042C6.22222 13.6597 5.95972 13.6986 5.6875 13.6208C5.41528 13.5431 5.20139 13.3778 5.04583 13.125L2.94583 9.47918C2.80972 9.2264 2.7757 8.9639 2.84375 8.69168C2.91181 8.41946 3.07222 8.20557 3.325 8.05001L9.975 4.20001H11.025C11.2389 4.20001 11.4333 4.26807 11.6083 4.40418C11.7833 4.54029 11.9097 4.71529 11.9875 4.92918L12.0167 4.98751C12.1722 5.39585 12.4299 5.71668 12.7896 5.95001C13.1493 6.18335 13.5528 6.30001 14 6.30001C14.4472 6.30001 14.8507 6.18335 15.2104 5.95001C15.5701 5.71668 15.8278 5.39585 15.9833 4.98751L16.0125 4.92918C16.0903 4.71529 16.2215 4.54029 16.4062 4.40418C16.591 4.26807 16.7903 4.20001 17.0042 4.20001H18.025L24.675 8.05001C24.9278 8.20557 25.0882 8.41946 25.1562 8.69168C25.2243 8.9639 25.1903 9.2264 25.0542 9.47918L22.9542 13.125C22.7986 13.3778 22.5847 13.5431 22.3125 13.6208C22.0403 13.6986 21.7778 13.6597 21.525 13.5042L20.3 12.8042V22.75C20.3 23.0417 20.1979 23.2896 19.9938 23.4938C19.7896 23.6979 19.5417 23.8 19.25 23.8H8.72083C8.42917 23.8 8.18125 23.6979 7.97708 23.4938C7.77292 23.2896 7.67083 23.0417 7.67083 22.75V12.8042ZM9.8 9.15835V21.7H18.2292V9.15835L21.6708 11.1708L22.7208 9.33335L17.6167 6.38751C17.2278 7.00973 16.7125 7.50071 16.0708 7.86043C15.4292 8.22015 14.7389 8.40001 14 8.40001C13.2611 8.40001 12.5708 8.22015 11.9292 7.86043C11.2875 7.50071 10.7722 7.00973 10.3833 6.38751L5.27917 9.33335L6.32917 11.1708L9.8 9.15835Z" fill="#27D17C"/>
</svg>
