<svg width="72" height="72" viewBox="0 0 72 72" fill="none" xmlns="http://www.w3.org/2000/svg">
<g>
<rect x="4" width="64" height="64" rx="32" fill="white"/>
<g clip-path="url(#clip0_134_168)">
<mask id="mask0_134_168" style="mask-type:luminance" maskUnits="userSpaceOnUse" x="22" y="19" width="28" height="26">
<path d="M50 19.5H22V44.5H50V19.5Z" fill="white"/>
</mask>
<g mask="url(#mask0_134_168)">
<path fill-rule="evenodd" clip-rule="evenodd" d="M24.8424 34.5872H35.5671C35.9056 34.5872 36.1799 34.8718 36.1799 35.2229V37.4372H36.356H47.4731L47.4622 37.4554H45.2311H43.0084L41.9099 38.0295L40.8366 38.5864H39.6309H36.7668H30.7921H24.8424C24.504 38.5864 24.2296 38.3017 24.2296 37.9505V35.2229C24.2296 34.8718 24.504 34.5872 24.8424 34.5872Z" fill="#DCEAF7"/>
<path fill-rule="evenodd" clip-rule="evenodd" d="M38.671 21.0237C38.8141 21.0527 39.0186 21.163 39.3106 21.3021C39.5489 21.4149 39.8043 21.5451 39.8723 21.5885C39.9404 21.6319 40.366 21.8402 40.8085 22.0658C41.2511 22.2828 41.6851 22.4998 41.7616 22.5432C41.8467 22.5951 42.1362 22.7515 42.417 22.899C42.7233 23.0639 42.9361 23.2375 42.9703 23.359C42.9957 23.4545 43.0214 23.923 43.0214 24.3831C43.0214 25.5633 43.0639 25.6067 44.2638 25.5633C44.9448 25.5459 45.1744 25.5027 45.2341 25.4071C45.2766 25.3378 45.3191 24.869 45.3191 24.3656C45.3191 23.706 45.3532 23.4024 45.4468 23.2722C45.6084 23.0292 49.6851 20.9636 49.8638 21.0332C49.9829 21.0766 50 21.3542 50 23.2722C50 24.4699 49.966 25.5027 49.9235 25.5633C49.8894 25.6241 48.9447 26.1448 47.8299 26.7089C45.8639 27.7156 45.4893 27.9412 45.4893 28.1235C45.4893 28.1756 45.9745 29.217 46.5787 30.432L47.6597 32.6537L47.6851 34.8581C47.7106 36.7413 47.6937 37.0798 47.5744 37.2621L47.4573 37.4531L47.4577 37.4524H36.3473C36.2501 37.4524 36.1713 37.5463 36.1713 37.6622V38.5625C36.1713 38.6204 36.191 38.6729 36.2229 38.7109L36.2499 38.7243L36.2674 38.7507C36.3819 38.854 36.6915 39.0281 37.3362 39.3536C37.7362 39.5532 38.1277 39.7875 38.2043 39.857C38.3234 39.9784 38.3404 40.2996 38.3404 42.2089C38.3404 44.0661 38.3234 44.4306 38.2128 44.4653C38.0511 44.5347 34 42.4605 33.8128 42.2175C33.6851 42.0526 33.6596 41.8096 33.6596 40.4037C33.6596 39.7398 33.6452 39.1296 33.6273 38.833L33.6206 38.7451L33.6291 38.702C33.6291 38.4577 33.6291 38.2133 33.6291 37.969C33.6291 37.845 33.5798 37.7327 33.5 37.6513L33.4569 37.6217L33.4553 37.6179L33.4184 37.5865L33.2696 37.5051L33.2716 37.5013L30.6496 36.0668L30.646 36.0737L30.6128 36.0557L30.5046 35.9924L29.2817 35.3233L29.2143 35.304C28.9495 35.2512 28.134 35.2009 26.9277 35.1705C24.2383 35.0924 24.383 35.023 24.383 36.3335C24.383 37.4443 24.3745 37.4356 25.6255 37.4009L26.5872 37.3749L27.8468 37.9997C28.5362 38.3469 29.1489 38.6767 29.2 38.7201C29.2511 38.7721 29.7362 39.0498 30.2808 39.3276C30.9617 39.6834 31.2766 39.9003 31.3106 40.0219C31.3787 40.2648 31.3702 44.0574 31.3106 44.3004C31.2766 44.4132 31.217 44.5 31.1574 44.5C31.0128 44.5 27.0128 42.4345 26.834 42.2696C26.7064 42.1481 26.6808 41.9832 26.6808 41.0806C26.6808 40.4992 26.6468 39.9784 26.6128 39.9177C26.5702 39.8656 25.5915 39.3276 24.417 38.7287C23.2511 38.1299 22.2298 37.5571 22.1532 37.4617C22.0085 37.2881 22 36.9323 22 32.7058V28.1235L22.1872 27.9499C22.2979 27.8545 23.3617 27.2817 24.5532 26.6828L26.7234 25.5807H31.1745C34.0851 25.5807 35.6851 25.6154 35.7958 25.6675C35.9404 25.7542 35.9575 25.8584 35.9575 26.6742C35.9575 27.2903 36 27.6635 36.0766 27.8197C36.1702 28.002 36.5447 28.2363 37.7191 28.8265C38.5532 29.243 39.3106 29.6249 39.4043 29.677C40.0851 30.0675 42.5957 31.3085 42.6893 31.3085C42.9788 31.3085 43.0214 31.1176 43.0214 29.703C43.0214 28.9393 42.9957 28.2276 42.9703 28.1235C42.9277 27.9846 42.417 27.6722 40.783 26.8391C39.6 26.2316 38.5702 25.6761 38.4936 25.6067C38.3574 25.4765 38.3404 25.2509 38.3404 23.2722C38.3404 21.6503 38.3138 21.0931 38.5474 21.0239C38.5824 21.0135 38.6233 21.014 38.671 21.0237Z" fill="url(#paint0_linear_134_168)"/>
<path fill-rule="evenodd" clip-rule="evenodd" d="M27.8238 19.5001C28.4968 19.5001 28.7013 19.5261 28.8291 19.6475C28.9569 19.7602 28.9824 19.9249 28.9824 20.6011C28.9824 21.702 29.0335 21.754 30.1581 21.754C30.6096 21.754 31.0441 21.7107 31.1123 21.6673C31.206 21.6066 31.2486 21.3552 31.2827 20.6617C31.3423 19.5001 31.3423 19.5001 32.5009 19.5001C33.7022 19.5001 33.6681 19.4654 33.6681 20.6964C33.6681 21.2512 33.6255 21.7713 33.5829 21.8407C33.5233 21.9361 33.2847 21.9794 32.5606 21.9967C31.6746 22.0314 31.6149 22.0401 31.453 22.2481C31.3082 22.4388 31.2827 22.6035 31.2827 23.2797C31.2827 24.32 31.2486 24.346 30.1155 24.3026C29.008 24.2593 28.9824 24.2333 28.9824 23.141C28.9824 22.3348 28.9739 22.2828 28.7694 22.1528C28.6161 22.0488 28.3605 22.0141 27.7897 22.0141C26.6566 22.0141 26.6822 22.0488 26.6822 20.7571C26.6822 19.8209 26.6992 19.6735 26.8355 19.5955C26.9122 19.5435 27.3637 19.5001 27.8238 19.5001Z" fill="#0070C0"/>
<path fill-rule="evenodd" clip-rule="evenodd" d="M33.5554 33.7849C32.7653 34.5841 32.502 34.923 32.5699 34.9925C32.6889 35.1141 34.4813 35.1575 34.7022 35.0446C34.8466 34.9577 34.8636 34.8535 34.8636 33.976C34.8636 32.4383 34.8551 32.4383 33.5554 33.7849Z" fill="#1A1A1A"/>
</g>
</g>
</g>
<defs>
<filter id="filter0_d_134_168" x="0" y="0" width="72" height="72" filterUnits="userSpaceOnUse" color-interpolation-filters="sRGB">
<feFlood flood-opacity="0" result="BackgroundImageFix"/>
<feColorMatrix in="SourceAlpha" type="matrix" values="0 0 0 0 0 0 0 0 0 0 0 0 0 0 0 0 0 0 127 0" result="hardAlpha"/>
<feOffset dy="4"/>
<feGaussianBlur stdDeviation="2"/>
<feComposite in2="hardAlpha" operator="out"/>
<feColorMatrix type="matrix" values="0 0 0 0 0 0 0 0 0 0 0 0 0 0 0 0 0 0 0.25 0"/>
<feBlend mode="normal" in2="BackgroundImageFix" result="effect1_dropShadow_134_168"/>
<feBlend mode="normal" in="SourceGraphic" in2="effect1_dropShadow_134_168" result="shape"/>
</filter>
<linearGradient id="paint0_linear_134_168" x1="22" y1="32.7581" x2="50" y2="32.7581" gradientUnits="userSpaceOnUse">
<stop stop-color="#4DA6FF"/>
<stop offset="1" stop-color="#4DA6FF"/>
</linearGradient>
<clipPath id="clip0_134_168">
<rect width="28" height="25" fill="white" transform="translate(22 19.5)"/>
</clipPath>
</defs>
</svg>
