<svg width="16" height="16" viewBox="0 0 16 16" fill="none" xmlns="http://www.w3.org/2000/svg">
<path d="M5.47917 7.35417L7.35417 5.47917L6.22917 4.33333L5.27083 5.27083L4.22917 4.22917L5.16667 3.27083L4 2.125L2.125 4L5.47917 7.35417ZM12 13.875L13.875 12L12.75 10.8542L11.7917 11.7917L10.75 10.75L11.6875 9.79167L10.5208 8.64583L8.64583 10.5208L12 13.875ZM4.1875 15H1V11.8125L4.41667 8.41667L0 4L4 0L8.41667 4.41667L11.375 1.4375C11.5278 1.28472 11.6944 1.17361 11.875 1.10417C12.0556 1.03472 12.2431 1 12.4375 1C12.6319 1 12.8194 1.03472 13 1.10417C13.1806 1.17361 13.3472 1.28472 13.5 1.4375L14.5625 2.5C14.7153 2.65278 14.8264 2.81944 14.8958 3C14.9653 3.18056 15 3.36806 15 3.5625C15 3.75694 14.9653 3.94444 14.8958 4.125C14.8264 4.30556 14.7153 4.47222 14.5625 4.625L11.5833 7.58333L16 12L12 16L7.58333 11.5833L4.1875 15ZM2.5 13.5H3.5625L11.375 5.6875L10.3125 4.625L2.5 12.4375V13.5ZM10.8542 5.14583L10.3125 4.625L11.375 5.6875L10.8542 5.14583Z" fill="#47E069"/>
</svg>
