<svg width="2466" height="2467" xmlns="http://www.w3.org/2000/svg" xmlns:xlink="http://www.w3.org/1999/xlink" xml:space="preserve" overflow="hidden"><defs><linearGradient x1="-119.839" y1="5204.94" x2="1437.16" y2="5204.94" gradientUnits="userSpaceOnUse" spreadMethod="reflect" id="fill0"><stop offset="0" stop-color="#414141"/><stop offset="0.00725" stop-color="#424242"/><stop offset="0.01449" stop-color="#444444"/><stop offset="0.02174" stop-color="#464646"/><stop offset="0.02899" stop-color="#484848"/><stop offset="0.03623" stop-color="#4A4A4A"/><stop offset="0.04348" stop-color="#4C4C4C"/><stop offset="0.05072" stop-color="#4D4D4D"/><stop offset="0.05797" stop-color="#4F4F4F"/><stop offset="0.06522" stop-color="#515151"/><stop offset="0.07246" stop-color="#535353"/><stop offset="0.07971" stop-color="#555555"/><stop offset="0.08696" stop-color="#565656"/><stop offset="0.0942" stop-color="#585858"/><stop offset="0.10145" stop-color="#5A5A5A"/><stop offset="0.1087" stop-color="#5B5B5B"/><stop offset="0.11594" stop-color="#5D5D5D"/><stop offset="0.12319" stop-color="#5F5F5F"/><stop offset="0.13044" stop-color="#616161"/><stop offset="0.13768" stop-color="#626262"/><stop offset="0.14493" stop-color="#646464"/><stop offset="0.15217" stop-color="#666666"/><stop offset="0.15942" stop-color="#676767"/><stop offset="0.16667" stop-color="#696969"/><stop offset="0.17391" stop-color="#6A6A6A"/><stop offset="0.18116" stop-color="#6C6C6C"/><stop offset="0.18841" stop-color="#6E6E6E"/><stop offset="0.19565" stop-color="#6F6F6F"/><stop offset="0.2029" stop-color="#717171"/><stop offset="0.21014" stop-color="#727272"/><stop offset="0.21739" stop-color="#747474"/><stop offset="0.22464" stop-color="#757575"/><stop offset="0.23188" stop-color="#777777"/><stop offset="0.23913" stop-color="#787878"/><stop offset="0.24638" stop-color="#7A7A7A"/><stop offset="0.25362" stop-color="#7B7B7B"/><stop offset="0.26087" stop-color="#7D7D7D"/><stop offset="0.26812" stop-color="#7E7E7E"/><stop offset="0.27536" stop-color="#808080"/><stop offset="0.28261" stop-color="#818181"/><stop offset="0.28986" stop-color="#828282"/><stop offset="0.2971" stop-color="#848484"/><stop offset="0.30435" stop-color="#858585"/><stop offset="0.31159" stop-color="#868686"/><stop offset="0.31884" stop-color="#888888"/><stop offset="0.32609" stop-color="#898989"/><stop offset="0.33333" stop-color="#8B8B8B"/><stop offset="0.34058" stop-color="#8C8C8C"/><stop offset="0.34783" stop-color="#8D8D8D"/><stop offset="0.35507" stop-color="#8E8E8E"/><stop offset="0.36232" stop-color="#909090"/><stop offset="0.36957" stop-color="#919191"/><stop offset="0.37681" stop-color="#929292"/><stop offset="0.38406" stop-color="#939393"/><stop offset="0.3913" stop-color="#959595"/><stop offset="0.39855" stop-color="#969696"/><stop offset="0.4058" stop-color="#979797"/><stop offset="0.41304" stop-color="#989898"/><stop offset="0.42029" stop-color="#999999"/><stop offset="0.42754" stop-color="#9B9B9B"/><stop offset="0.43478" stop-color="#9C9C9C"/><stop offset="0.44203" stop-color="#9D9D9D"/><stop offset="0.44927" stop-color="#9E9E9E"/><stop offset="0.45652" stop-color="#9F9F9F"/><stop offset="0.46377" stop-color="#A0A0A0"/><stop offset="0.47101" stop-color="#A1A1A1"/><stop offset="0.47826" stop-color="#A2A2A2"/><stop offset="0.48551" stop-color="#A4A4A4"/><stop offset="0.49275" stop-color="#A5A5A5"/><stop offset="0.5" stop-color="#A6A6A6"/><stop offset="0.50725" stop-color="#A7A7A7"/><stop offset="0.51449" stop-color="#A8A8A8"/><stop offset="0.52174" stop-color="#A9A9A9"/><stop offset="0.52899" stop-color="#AAAAAA"/><stop offset="0.53623" stop-color="#ABABAB"/><stop offset="0.54348" stop-color="#ACACAC"/><stop offset="0.55072" stop-color="#ACACAC"/><stop offset="0.55797" stop-color="#ADADAD"/><stop offset="0.56522" stop-color="#AEAEAE"/><stop offset="0.57246" stop-color="#AFAFAF"/><stop offset="0.57971" stop-color="#B0B0B0"/><stop offset="0.58696" stop-color="#B1B1B1"/><stop offset="0.5942" stop-color="#B2B2B2"/><stop offset="0.60145" stop-color="#B3B3B3"/><stop offset="0.6087" stop-color="#B4B4B4"/><stop offset="0.61594" stop-color="#B4B4B4"/><stop offset="0.62319" stop-color="#B5B5B5"/><stop offset="0.63043" stop-color="#B6B6B6"/><stop offset="0.63768" stop-color="#B7B7B7"/><stop offset="0.64493" stop-color="#B8B8B8"/><stop offset="0.65217" stop-color="#B8B8B8"/><stop offset="0.65942" stop-color="#B9B9B9"/><stop offset="0.66667" stop-color="#BABABA"/><stop offset="0.67391" stop-color="#BABABA"/><stop offset="0.68116" stop-color="#BBBBBB"/><stop offset="0.68841" stop-color="#BCBCBC"/><stop offset="0.69565" stop-color="#BDBDBD"/><stop offset="0.7029" stop-color="#BDBDBD"/><stop offset="0.71014" stop-color="#BEBEBE"/><stop offset="0.71739" stop-color="#BEBEBE"/><stop offset="0.72464" stop-color="#BFBFBF"/><stop offset="0.73188" stop-color="#C0C0C0"/><stop offset="0.73913" stop-color="#C0C0C0"/><stop offset="0.74638" stop-color="#C1C1C1"/><stop offset="0.75362" stop-color="#C1C1C1"/><stop offset="0.76087" stop-color="#C2C2C2"/><stop offset="0.76812" stop-color="#C3C3C3"/><stop offset="0.77536" stop-color="#C3C3C3"/><stop offset="0.78261" stop-color="#C4C4C4"/><stop offset="0.78986" stop-color="#C4C4C4"/><stop offset="0.7971" stop-color="#C5C5C5"/><stop offset="0.80435" stop-color="#C5C5C5"/><stop offset="0.81159" stop-color="#C5C5C5"/><stop offset="0.81884" stop-color="#C6C6C6"/><stop offset="0.82609" stop-color="#C6C6C6"/><stop offset="0.83333" stop-color="#C7C7C7"/><stop offset="0.84058" stop-color="#C7C7C7"/><stop offset="0.84783" stop-color="#C7C7C7"/><stop offset="0.85507" stop-color="#C8C8C8"/><stop offset="0.86232" stop-color="#C8C8C8"/><stop offset="0.86957" stop-color="#C8C8C8"/><stop offset="0.87681" stop-color="#C9C9C9"/><stop offset="0.88406" stop-color="#C9C9C9"/><stop offset="0.8913" stop-color="#C9C9C9"/><stop offset="0.89855" stop-color="#CACACA"/><stop offset="0.9058" stop-color="#CACACA"/><stop offset="0.91304" stop-color="#CACACA"/><stop offset="0.92029" stop-color="#CACACA"/><stop offset="0.92754" stop-color="#CACACA"/><stop offset="0.93478" stop-color="#CBCBCB"/><stop offset="0.94203" stop-color="#CBCBCB"/><stop offset="0.94928" stop-color="#CBCBCB"/><stop offset="0.95652" stop-color="#CBCBCB"/><stop offset="0.96377" stop-color="#CBCBCB"/><stop offset="0.97101" stop-color="#CBCBCB"/><stop offset="0.97826" stop-color="#CBCBCB"/><stop offset="0.98551" stop-color="#CBCBCB"/><stop offset="0.99275" stop-color="#CBCBCB"/><stop offset="1" stop-color="#CCCCCC"/></linearGradient></defs><g transform="translate(639 -3799)"><path d="M-78.7838 5072.94 639.616 5072.94C662.286 5072.94 680.671 5091.73 680.671 5114.91L680.671 5261.08 692.467 5261.08 692.467 5261.08 1437.16 5261.08 1436.43 5262.27 1286.97 5262.27 1138.09 5262.27 1064.5 5300.18 992.595 5336.94 911.83 5336.94 719.982 5336.94 719.982 5336.94 319.746 5336.94 319.746 5336.94-78.7838 5336.94C-101.454 5336.94-119.839 5318.15-119.839 5294.98L-119.839 5114.91C-119.839 5091.73-101.454 5072.94-78.7838 5072.94Z" fill="url(#fill0)" fill-rule="evenodd"/><path d="M1117.66 1543.62C1127.26 1541.72 1140.96 1534.46 1160.54 1525.32 1176.51 1517.9 1193.63 1509.34 1198.19 1506.49 1202.76 1503.63 1231.28 1489.94 1260.95 1475.11 1290.62 1460.84 1319.71 1446.57 1324.85 1443.72 1330.55 1440.3 1349.95 1430.02 1368.77 1420.33 1389.31 1409.49 1403.57 1398.07 1405.87 1390.08 1407.57 1383.8 1409.29 1353 1409.29 1322.75 1409.29 1245.15 1412.14 1242.3 1492.58 1245.15 1538.23 1246.3 1553.62 1249.14 1557.62 1255.42 1560.47 1259.98 1563.32 1290.8 1563.32 1323.9 1563.32 1367.27 1565.6 1387.23 1571.88 1395.79 1582.72 1411.77 1856 1547.57 1867.98 1543 1875.96 1540.15 1877.11 1521.89 1877.11 1395.79 1877.11 1317.05 1874.83 1249.14 1871.98 1245.15 1869.7 1241.16 1806.36 1206.92 1731.63 1169.84 1599.84 1103.65 1574.73 1088.81 1574.73 1076.83 1574.73 1073.4 1607.25 1004.93 1647.76 925.05L1720.22 778.977 1721.93 634.045C1723.64 510.226 1722.5 487.973 1714.51 475.99L1706.66 463.43 1706.68 463.477 961.892 463.477C955.376 463.477 950.094 457.3 950.094 449.68L950.094 390.489C950.094 386.68 951.414 383.229 953.549 380.733L955.364 379.853 956.536 378.115C964.212 371.321 984.964 359.874 1028.18 338.476 1054.99 325.352 1081.24 309.946 1086.37 305.381 1094.36 297.393 1095.5 276.281 1095.5 150.75 1095.5 28.6423 1094.36 4.67677 1086.94 2.39417 1076.1-2.17031 804.537 134.202 791.986 150.179 783.428 161.021 781.717 176.998 781.717 269.433 781.717 313.084 780.754 353.205 779.551 372.703L779.101 378.482 779.673 381.314C779.673 397.379 779.672 413.445 779.672 429.509 779.672 437.665 776.367 445.049 771.023 450.395L768.133 452.343 768.025 452.595 765.547 454.659 755.576 460.01 755.708 460.257 579.941 554.572 579.699 554.122 577.472 555.303 570.222 559.469 488.245 603.457 483.725 604.727C465.972 608.199 411.309 611.506 330.438 613.504 150.155 618.639 159.853 623.204 159.853 537.043 159.853 464.007 159.283 464.578 243.15 466.861L307.618 468.573 392.054 427.489C438.265 404.666 479.343 382.982 482.765 380.13 486.189 376.705 518.709 358.447 555.221 340.188 600.863 316.794 621.972 302.529 624.254 294.54 628.818 278.564 628.247 29.2127 624.254 13.2356 621.972 5.81807 617.978 0.112289 613.985 0.112289 604.286 0.112289 336.143 135.914 324.162 146.756 315.604 154.744 313.893 165.585 313.893 224.928 313.893 263.158 311.611 297.393 309.329 301.387 306.476 304.811 240.867 340.188 162.136 379.559 83.9746 418.931 15.5127 456.59 10.3779 462.865 0.679519 474.278 0.108622 497.672 0.108622 775.553L0.108622 1076.83 12.6601 1088.24C20.0767 1094.52 91.3912 1132.18 171.263 1171.55L316.746 1244.01 615.126 1244.01C810.243 1244.01 917.5 1241.73 924.917 1238.31 934.616 1232.6 935.757 1225.75 935.757 1172.12 935.757 1131.61 938.609 1107.07 943.744 1096.8 950.019 1084.82 975.122 1069.41 1053.85 1030.61 1109.76 1003.22 1160.54 978.114 1166.82 974.691 1212.46 949.015 1380.76 867.419 1387.03 867.419 1406.44 867.419 1409.29 879.973 1409.29 972.979 1409.29 1023.19 1407.57 1069.98 1405.87 1076.83 1403.01 1085.96 1368.77 1106.5 1259.24 1161.28 1179.94 1201.22 1110.91 1237.74 1105.77 1242.3 1096.64 1250.86 1095.5 1265.69 1095.5 1395.79 1095.5 1502.43 1093.72 1539.06 1109.37 1543.61 1111.72 1544.3 1114.46 1544.26 1117.66 1543.62Z" fill="#FFFFFF" fill-rule="evenodd" transform="matrix(1 0 0 -1 -268 5726)"/><path d="M76.68 316.077C121.767 316.077 135.464 314.37 144.024 306.404 152.585 299.007 154.298 288.195 154.298 243.812 154.298 171.549 157.722 168.135 233.056 168.135 263.305 168.135 292.412 170.979 296.978 173.824 303.255 177.808 306.109 194.31 308.392 239.83 312.387 316.077 312.387 316.077 390.005 316.077 470.476 316.077 468.194 318.352 468.194 237.553 468.194 201.137 465.339 166.997 462.486 162.445 458.491 156.186 442.511 153.34 394 152.203 334.645 149.927 330.65 149.358 319.806 135.702 310.104 123.184 308.392 112.373 308.392 67.9898 308.392-0.290889 306.109-1.99765 230.203 0.847435 156.01 3.69252 154.298 5.39929 154.298 77.0939 154.298 130.011 153.727 133.425 140.029 141.961 129.757 148.788 112.635 151.065 74.3969 151.065-1.50855 151.065 0.203213 148.788 0.203213 233.571 0.203213 295.023 1.34475 304.697 10.4763 309.818 15.6127 313.232 45.861 316.077 76.68 316.077Z" fill="#FFFFFF" fill-rule="evenodd" transform="matrix(1 0 0 -1 45 4399)"/><path d="M67.3008 87.4442C14.1496 34.9066-3.56773 12.6351 1.00466 8.06685 9.00606 0.0718353 129.596-2.78353 144.456 4.64042 154.172 10.3511 155.315 17.2037 155.315 74.8806 155.315 175.958 154.744 175.958 67.3008 87.4442Z" fill-rule="evenodd" transform="matrix(1 0 0 -1 438 5109)"/></g></svg>