<svg width="17" height="17" viewBox="0 0 17 17" fill="none" xmlns="http://www.w3.org/2000/svg">
<path d="M8 13C6.61111 13 5.43056 12.5139 4.45833 11.5417C3.48611 10.5694 3 9.38889 3 8C3 6.61111 3.48611 5.43056 4.45833 4.45833C5.43056 3.48611 6.61111 3 8 3C9.38889 3 10.5694 3.48611 11.5417 4.45833C12.5139 5.43056 13 6.61111 13 8L11.4792 7.5C11.3542 6.63889 10.9618 5.92361 10.3021 5.35417C9.64236 4.78472 8.875 4.5 8 4.5C7.02778 4.5 6.20139 4.84028 5.52083 5.52083C4.84028 6.20139 4.5 7.02778 4.5 8C4.5 8.875 4.78472 9.64236 5.35417 10.3021C5.92361 10.9618 6.63889 11.3542 7.5 11.4792L8 13ZM8.91667 15.9375C8.76389 15.9653 8.61111 15.9826 8.45833 15.9896C8.30556 15.9965 8.15278 16 8 16C6.90278 16 5.86806 15.7917 4.89583 15.375C3.92361 14.9583 3.07292 14.3854 2.34375 13.6563C1.61458 12.9271 1.04167 12.0764 0.625 11.1042C0.208333 10.1319 0 9.09722 0 8C0 6.88889 0.208333 5.85069 0.625 4.88542C1.04167 3.92014 1.61458 3.07292 2.34375 2.34375C3.07292 1.61458 3.92361 1.04167 4.89583 0.625C5.86806 0.208333 6.90278 0 8 0C9.11111 0 10.1493 0.208333 11.1146 0.625C12.0799 1.04167 12.9271 1.61458 13.6563 2.34375C14.3854 3.07292 14.9583 3.92014 15.375 4.88542C15.7917 5.85069 16 6.88889 16 8C16 8.15278 15.9965 8.30556 15.9896 8.45833C15.9826 8.61111 15.9722 8.76389 15.9583 8.91667L14.5 8.45833V8C14.5 6.19444 13.8681 4.65972 12.6042 3.39583C11.3403 2.13194 9.80556 1.5 8 1.5C6.19444 1.5 4.65972 2.13194 3.39583 3.39583C2.13194 4.65972 1.5 6.19444 1.5 8C1.5 9.80556 2.13194 11.3403 3.39583 12.6042C4.65972 13.8681 6.19444 14.5 8 14.5C8.06944 14.5 8.14583 14.4965 8.22917 14.4896C8.3125 14.4826 8.38889 14.4792 8.45833 14.4792L8.91667 15.9375ZM15.0833 16.5L11.625 13.0208L10.5 16L8 8L16 10.5L13.0208 11.6042L16.5 15.0833L15.0833 16.5Z" fill="#E7F95D"/>
</svg>
