<svg width="1507" height="1319" xmlns="http://www.w3.org/2000/svg" xmlns:xlink="http://www.w3.org/1999/xlink" xml:space="preserve" overflow="hidden"><defs><clipPath id="clip0"><rect x="2563" y="496" width="1507" height="1319"/></clipPath><linearGradient x1="0" y1="619.5" x2="1507" y2="619.5" gradientUnits="userSpaceOnUse" spreadMethod="reflect" id="fill1"><stop offset="0" stop-color="#4DA6FF"/><stop offset="1" stop-color="#4DA6FF"/></linearGradient></defs><g clip-path="url(#clip0)" transform="translate(-2563 -496)"><path d="M2715.98 1292 3293.2 1292C3311.42 1292 3326.18 1307.02 3326.18 1325.54L3326.18 1442.37 3335.66 1442.37 3335.66 1442.37 3934 1442.37 3933.41 1443.33 3813.33 1443.33 3693.7 1443.33 3634.58 1473.62 3576.81 1503 3511.92 1503 3357.77 1503 3357.77 1503 3036.2 1503 3036.2 1503 2715.98 1503C2697.77 1503 2683 1487.98 2683 1469.45L2683 1325.54C2683 1307.02 2697.77 1292 2715.98 1292Z" fill="#DCEAF7" fill-rule="evenodd"/><path d="M897.257 1238.61C904.96 1237.08 915.966 1231.26 931.683 1223.92 944.509 1217.97 958.251 1211.1 961.915 1208.81 965.579 1206.52 988.482 1195.53 1012.3 1183.63 1036.12 1172.18 1059.48 1160.73 1063.6 1158.44 1068.18 1155.7 1083.76 1147.45 1098.87 1139.67 1115.36 1130.97 1126.81 1121.81 1128.65 1115.4 1130.02 1110.36 1131.4 1085.64 1131.4 1061.37 1131.4 999.1 1133.69 996.81 1198.27 999.1 1234.92 1000.02 1247.28 1002.3 1250.49 1007.34 1252.78 1011 1255.07 1035.73 1255.07 1062.29 1255.07 1097.09 1256.9 1113.11 1261.94 1119.98 1270.64 1132.8 1490.05 1241.78 1499.67 1238.11 1506.08 1235.82 1507 1221.17 1507 1119.98 1507 1056.79 1505.17 1002.3 1502.88 999.1 1501.05 995.894 1450.2 968.422 1390.2 938.659 1284.39 885.545 1264.23 873.64 1264.23 864.024 1264.23 861.277 1290.34 806.331 1322.86 742.228L1381.04 625.01 1382.41 508.707C1383.78 409.347 1382.87 391.49 1376.45 381.874L1370.15 371.795 1370.17 371.833 772.193 371.833C766.962 371.833 762.721 366.876 762.721 360.761L762.721 313.263C762.721 310.206 763.781 307.437 765.495 305.434L766.952 304.728 767.893 303.333C774.056 297.881 790.717 288.695 825.415 271.524 846.943 260.993 868.014 248.63 872.136 244.967 878.549 238.557 879.465 221.615 879.465 120.881 879.465 22.8943 878.549 3.66282 872.594 1.83123 863.891-1.83159 645.857 107.602 635.78 120.423 628.909 129.123 627.535 141.944 627.535 216.12 627.535 251.148 626.762 283.344 625.796 298.99L625.435 303.628 625.894 305.9C625.894 318.792 625.893 331.684 625.893 344.575 625.893 351.12 623.24 357.045 618.949 361.335L616.629 362.898 616.542 363.101 614.553 364.757 606.547 369.051 606.653 369.249 465.534 444.933 465.34 444.572 463.552 445.52 457.731 448.863 391.913 484.162 388.284 485.181C374.031 487.967 330.143 490.621 265.214 492.224 120.469 496.345 128.255 500.008 128.255 430.867 128.255 372.258 127.797 372.716 195.132 374.548L246.892 375.922 314.684 342.954C351.786 324.639 384.766 307.239 387.514 304.95 390.263 302.202 416.372 287.55 445.687 272.898 482.332 254.125 499.28 242.678 501.112 236.267 504.776 223.447 504.318 23.3521 501.112 10.531 499.28 4.5788 496.073 0 492.867 0 485.08 0 269.794 108.976 260.175 117.676 253.304 124.086 251.93 132.786 251.93 180.406 251.93 211.084 250.098 238.557 248.266 241.762 245.975 244.509 193.299 272.898 130.088 304.492 67.3341 336.086 12.3675 366.306 8.24512 371.342 0.458323 380.5 0 399.273 0 622.262L0 864.024 10.0773 873.182C16.0319 878.219 73.2887 908.439 137.416 940.033L254.221 998.184 493.783 998.184C650.438 998.184 736.552 996.353 742.507 993.605 750.294 989.026 751.21 983.532 751.21 940.491 751.21 907.981 753.5 888.292 757.623 880.05 762.661 870.435 782.816 858.072 846.027 826.936 890.916 804.958 931.683 784.81 936.722 782.063 973.366 761.459 1108.49 695.981 1113.53 695.981 1129.11 695.981 1131.4 706.055 1131.4 780.689 1131.4 820.983 1130.02 858.53 1128.65 864.024 1126.36 871.35 1098.87 887.834 1010.93 931.791 947.257 963.842 891.833 993.147 887.71 996.81 880.381 1003.68 879.465 1015.58 879.465 1119.98 879.465 1205.55 878.034 1234.95 890.604 1238.6 892.489 1239.15 894.69 1239.12 897.257 1238.61Z" fill="url(#fill1)" fill-rule="evenodd" transform="matrix(1 0 0 -1 2563 1815)"/><path d="M61.4457 253.995C97.6692 253.995 108.674 252.623 115.552 246.22 122.43 240.274 123.805 231.584 123.805 195.909 123.805 137.824 126.556 135.08 187.082 135.08 211.384 135.08 234.769 137.366 238.437 139.653 243.481 142.855 245.773 156.119 247.607 192.708 250.817 253.995 250.817 253.995 313.177 253.995 377.829 253.995 375.995 255.824 375.995 190.878 375.995 161.607 373.702 134.165 371.41 130.506 368.2 125.475 355.361 123.188 316.386 122.274 268.7 120.444 265.49 119.987 256.778 109.01 248.983 98.948 247.607 90.258 247.607 54.5833 247.607-0.300538 245.773-1.67242 184.789 0.614409 125.181 2.90124 123.805 4.27312 123.805 61.9011 123.805 104.436 123.347 107.18 112.342 114.041 104.089 119.529 90.3328 121.359 59.6116 121.359-1.37241 121.359 0.00289005 119.529 0.00289005 187.677 0.00289005 237.072 0.920119 244.848 8.25651 248.964 12.3831 251.708 36.6852 253.995 61.4457 253.995Z" fill="#0070C0" fill-rule="evenodd" transform="matrix(1 0 0 -1 2815 750)"/><path d="M52.9262 69.3292C10.4051 27.1608-3.76866 9.28508-0.110949 5.6185 6.29022-0.798465 102.763-3.09021 114.65 2.86848 122.423 7.45197 123.337 12.952 123.337 59.2453 123.337 140.373 122.88 140.373 52.9262 69.3292Z" fill="#1A1A1A" fill-rule="evenodd" transform="matrix(1 0 0 -1 3132 1319)"/></g></svg>