<svg width="872" height="712" xmlns="http://www.w3.org/2000/svg" xmlns:xlink="http://www.w3.org/1999/xlink" xml:space="preserve" overflow="hidden"><defs><clipPath id="clip0"><rect x="2523" y="412" width="872" height="712"/></clipPath></defs><g clip-path="url(#clip0)" transform="translate(-2523 -412)"><path d="M2523.27 412.001C2525.12 413.759 2526.63 415.589 2528.08 417.694 2530.8 421.577 2533.67 425.341 2536.58 429.094 2537.45 430.224 2538.32 431.356 2539.19 432.487 2544.38 439.207 2549.75 445.763 2555.26 452.22 2556.64 453.845 2557.99 455.496 2559.32 457.165 2561.7 460.095 2564.29 462.817 2566.89 465.546 2568.51 467.238 2570.1 468.939 2571.62 470.711 2573.47 472.836 2575.44 474.805 2577.45 476.774 2579.49 478.769 2581.48 480.766 2583.34 482.927 2584.81 484.63 2586.34 486.128 2588.02 487.622 2589.91 489.317 2591.75 491.034 2593.53 492.841 2595.17 494.504 2596.87 496.065 2598.64 497.587 2599.93 498.701 2601.17 499.85 2602.42 501 2604.7 503.074 2607.03 505.042 2609.43 506.972 2610.67 507.983 2611.88 509.016 2613.09 510.063 2617.33 513.714 2621.8 517.033 2626.3 520.352 2627.51 521.249 2628.71 522.154 2629.91 523.063 2642.42 532.485 2655.84 540.692 2669.62 548.126 2670.04 548.357 2670.47 548.59 2670.91 548.829 2694.12 561.39 2718.89 570.042 2744.56 575.958 2745.13 576.09 2745.71 576.223 2746.3 576.359 2754.08 578.119 2761.94 579.197 2769.85 580.203 2770.25 580.254 2770.65 580.305 2771.06 580.357 2771.81 580.454 2772.56 580.548 2773.31 580.64 2775.85 580.962 2775.85 580.962 2776.97 581.524 2776.82 581.245 2776.66 580.967 2776.5 580.679 2767.51 564.445 2759.85 547.916 2753.68 530.414 2753.49 529.893 2753.3 529.372 2753.11 528.835 2741.35 496.055 2736.08 460.885 2735.16 426.17 2735.14 425.378 2735.12 424.586 2735.1 423.794 2735.04 421.887 2734.99 419.98 2734.94 418.073 2737.09 418.788 2737.58 420.331 2738.61 422.216 2744.68 432.877 2752.12 442.586 2759.94 451.995 2760.67 452.876 2761.39 453.762 2762.11 454.652 2763.97 456.958 2765.84 459.152 2767.97 461.203 2768.84 462.069 2769.63 462.965 2770.42 463.898 2772.71 466.519 2775.15 468.972 2777.6 471.429 2778.05 471.879 2778.49 472.33 2778.95 472.794 2781.62 475.468 2784.37 477.939 2787.34 480.285 2788.69 481.382 2789.95 482.541 2791.21 483.732 2794.86 487.082 2798.83 490.01 2802.8 492.967 2803.13 493.216 2803.46 493.465 2803.8 493.721 2808.42 497.18 2813.14 500.463 2817.99 503.594 2818.46 503.898 2818.46 503.898 2818.94 504.208 2824.74 507.936 2830.7 511.371 2836.73 514.727 2837.3 515.048 2837.3 515.048 2837.88 515.375 2874.45 535.84 2917.45 545.7 2959.18 545.722 2959.76 545.722 2960.34 545.722 2960.94 545.723 2970.77 545.714 2980.41 545.32 2990.16 544.077 2990.51 544.034 2990.85 543.991 2991.2 543.947 3017.4 540.633 3042.58 533.139 3066.63 522.317 3067.08 522.115 3067.53 521.913 3068 521.705 3082.64 515.104 3096.59 506.802 3109.67 497.522 3110.06 497.252 3110.44 496.982 3110.84 496.704 3116.07 493.024 3121.1 489.154 3126.02 485.076 3127.2 484.104 3128.41 483.159 3129.62 482.214 3131.76 480.505 3133.8 478.694 3135.82 476.847 3136.87 475.901 3137.92 474.974 3138.98 474.054 3143.83 469.816 3148.49 465.396 3153.04 460.834 3153.9 459.973 3154.76 459.115 3155.62 458.257 3158.47 455.405 3161.24 452.519 3163.86 449.447 3164.68 448.549 3165.5 447.653 3166.33 446.759 3168.4 444.489 3170.36 442.158 3172.29 439.766 3173.12 438.754 3173.95 437.757 3174.81 436.769 3177.66 433.463 3180.33 430.089 3182.83 426.51 3183.4 425.705 3184.01 424.922 3184.62 424.146 3184.95 424.146 3185.29 424.146 3185.63 424.146 3186.26 473.14 3172.69 520.495 3146.64 580.006 3183.22 573.486 3218.34 564.75 3251.97 548.632 3252.47 548.396 3252.96 548.159 3253.47 547.915 3261.31 544.152 3268.83 539.962 3276.28 535.475 3276.74 535.197 3277.2 534.92 3277.68 534.634 3290.22 527.099 3301.98 518.489 3313.24 509.16 3313.54 508.919 3313.83 508.677 3314.13 508.427 3318.07 505.169 3321.85 501.774 3325.59 498.287 3326.41 497.526 3327.23 496.771 3328.06 496.019 3332.96 491.549 3337.84 487.005 3342.14 481.941 3343.23 480.7 3344.35 479.501 3345.48 478.301 3348.14 475.471 3350.7 472.605 3353.13 469.573 3354.17 468.289 3355.23 467.031 3356.3 465.777 3361.11 460.165 3365.48 454.262 3369.78 448.261 3370.88 446.736 3371.98 445.218 3373.09 443.707 3379.63 434.82 3385.51 425.518 3391.22 416.087 3391.71 415.286 3391.71 415.286 3392.21 414.469 3392.5 413.992 3392.78 413.515 3393.08 413.023 3393.31 412.686 3393.53 412.348 3393.76 412.001 3393.93 412.001 3394.1 412.001 3394.27 412.001 3393.95 416.442 3392.83 420.669 3391.74 424.968 3391.58 425.571 3391.58 425.571 3391.43 426.186 3386.19 446.848 3379.67 467.2 3371.48 486.895 3371.25 487.451 3371.02 488.008 3370.78 488.581 3359.81 515.033 3346.48 540.304 3330.7 564.206 3330.01 565.245 3329.33 566.286 3328.65 567.327 3325.63 571.93 3322.43 576.397 3319.18 580.839 3318.3 582.045 3317.42 583.253 3316.55 584.462 3312.96 589.386 3309.24 594.176 3305.36 598.868 3304.33 600.112 3303.31 601.367 3302.3 602.62 3297.5 608.473 3292.57 614.21 3287.44 619.773 3286.17 621.149 3284.93 622.541 3283.72 623.969 3281.72 626.279 3279.52 628.393 3277.35 630.537 3275.79 632.086 3274.28 633.64 3272.86 635.323 3271.25 637.217 3269.44 638.81 3267.57 640.448 3265.93 641.947 3264.36 643.512 3262.8 645.096 3260.78 647.13 3258.75 649.102 3256.57 650.955 3255.47 651.899 3254.41 652.876 3253.35 653.858 3250.75 656.269 3248.1 658.566 3245.33 660.787 3243.99 661.887 3242.67 663.014 3241.37 664.156 3237.62 667.417 3233.72 670.402 3229.72 673.349 3228.31 674.405 3226.91 675.483 3225.51 676.561 3189.74 704.111 3149.23 725.417 3060.9 750.795 3060.51 750.864 3060.11 750.933 3059.7 751.004 3058.58 751.197 3057.47 751.384 3056.35 751.57 3055.71 751.677 3055.06 751.785 3054.4 751.895 3053.69 751.977 3053.69 751.977 3052.96 752.06 3052.05 751.148 3052.38 749.761 3052.38 748.531 3052.38 747.562 3052.38 747.562 3052.38 746.572 3052.38 745.861 3052.38 745.149 3052.38 744.438 3052.38 743.714 3052.38 742.99 3052.38 742.265 3052.38 740.746 3052.38 739.226 3052.38 737.707 3052.39 735.755 3052.38 733.803 3052.38 731.851 3052.38 730.355 3052.38 728.859 3052.38 727.363 3052.38 726.643 3052.38 725.923 3052.38 725.204 3052.38 724.199 3052.38 723.195 3052.38 722.19 3052.38 721.331 3052.38 721.331 3052.38 720.454 3052.45 719.168 3052.45 719.168 3052.96 718.661 3053.7 718.547 3054.45 718.461 3055.2 718.387 3067.59 717.048 3078.06 713.887 3087.9 706.01 3088.31 705.686 3088.72 705.362 3089.15 705.028 3101.24 694.927 3107.88 678.508 3109.59 663.168 3110.19 654.601 3110.27 645.547 3108.15 637.189 3108.05 636.782 3107.95 636.375 3107.85 635.955 3104.54 622.974 3098.07 613.399 3086.66 606.211 3069.68 596.153 3049.56 592.59 3030.28 597.312 3015.83 601.17 3004.07 610.036 2996.49 622.931 2986.98 639.544 2985.35 658.467 2983.58 677.166 2983.52 677.802 2983.46 678.438 2983.4 679.094 2979.46 722.307 2985.5 767.688 3003.84 807.219 3004.05 807.689 3004.26 808.161 3004.48 808.645 3011.53 824.145 3021.33 843.265 3034.67 854.496 3035.74 855.799 3035.74 855.799 3035.65 857.283 3035.17 859.974 3034.39 862.598 3033.65 865.228 3033.4 866.122 3033.4 866.122 3033.15 867.033 3032.69 868.693 3032.23 870.352 3031.76 872.011 3031.26 873.816 3030.76 875.622 3030.25 877.428 3029 881.923 3027.75 886.415 3026.49 890.907 3025.99 892.707 3025.48 894.508 3024.98 896.308 3022.1 906.624 3019.21 916.938 3016.32 927.252 3013.27 938.142 3010.23 949.037 3007.19 959.932 3006.81 961.278 3006.43 962.629 3006.06 963.98 3004.3 970.255 3002.55 976.535 3000.8 982.815 2998.79 989.996 2996.79 997.177 2994.78 1004.35 2994.66 1004.8 2994.54 1005.25 2994.41 1005.7 2990.02 1021.41 2985.63 1037.1 2981.24 1052.8 2978.16 1063.8 2975.09 1074.79 2972.02 1085.79 2971.88 1086.3 2971.74 1086.8 2971.59 1087.32 2970.24 1092.17 2968.89 1097.01 2967.53 1101.86 2967.04 1103.61 2966.55 1105.37 2966.06 1107.12 2965.84 1107.93 2965.61 1108.73 2965.39 1109.54 2964.04 1114.37 2962.68 1119.19 2961.3 1124 2960.29 1123.49 2960.29 1123.49 2959.71 1121.83 2959.49 1121.07 2959.28 1120.31 2959.07 1119.55 2958.89 1118.92 2958.89 1118.92 2958.71 1118.28 2958.31 1116.87 2957.92 1115.46 2957.53 1114.05 2957.25 1113.05 2956.97 1112.05 2956.69 1111.05 2956.08 1108.9 2955.48 1106.74 2954.87 1104.59 2953.92 1101.17 2952.96 1097.76 2952 1094.34 2951.01 1090.82 2950.02 1087.31 2949.03 1083.79 2946.15 1073.55 2943.25 1063.32 2940.34 1053.09 2939.55 1050.33 2938.77 1047.57 2937.98 1044.82 2937.79 1044.14 2937.79 1044.14 2937.59 1043.45 2937.34 1042.54 2937.08 1041.63 2936.82 1040.73 2936.44 1039.38 2936.06 1038.04 2935.68 1036.7 2933.09 1027.63 2930.52 1018.55 2927.94 1009.48 2927.72 1008.7 2927.5 1007.93 2927.28 1007.16 2923.99 995.562 2920.7 983.974 2917.41 972.38 2914.57 962.371 2911.73 952.362 2908.89 942.352 2908.1 939.589 2907.32 936.826 2906.53 934.068 2906.09 932.499 2905.64 930.931 2905.2 929.367 2905.09 928.978 2904.98 928.593 2904.87 928.193 2903.77 924.347 2902.68 920.496 2901.59 916.65 2901.37 915.899 2901.16 915.148 2900.95 914.397 2900.42 912.547 2899.89 910.696 2899.37 908.846 2898.35 905.279 2897.34 901.71 2896.35 898.136 2895.97 896.765 2895.59 895.394 2895.21 894.023 2895.11 893.689 2895.02 893.356 2894.92 893.012 2893.59 888.25 2892.09 883.562 2890.48 878.885 2884.75 861.928 2884.75 861.928 2887.02 856.702 2888.49 853.775 2890.58 851.34 2892.81 848.964 2894.44 847.162 2895.6 845.187 2896.8 843.085 2897.24 842.36 2897.68 841.636 2898.12 840.914 2924.68 796.972 2940.91 751.876 2932.82 638.634 2930.57 630.136 2926.05 622.497 2920.28 615.935 2919.88 615.413 2919.49 614.892 2919.08 614.354 2917 612.079 2914.61 610.235 2912.18 608.345 2911.75 608.004 2911.32 607.663 2910.88 607.313 2898.26 597.662 2881.54 593.083 2865.75 594.932 2857.25 596.081 2849.79 598.633 2842.3 602.778 2841.8 603.053 2841.3 603.328 2840.78 603.612 2825.39 612.75 2815.22 630.436 2810.85 647.349 2807.76 661.479 2810.84 675.721 2818.41 687.888 2827.62 702.204 2842.26 713.337 2859.01 717.143 2862.06 717.707 2865.14 718.129 2868.22 718.505 2869.14 718.661 2869.14 718.661 2870.15 719.168 2870.15 729.688 2870.15 740.209 2870.15 751.048 2851.84 746.998 2833.83 742.564 2815.96 736.879 2815.6 736.765 2815.25 736.651 2814.88 736.534 2772.62 723.079 2731.34 703.859 2695.44 677.672 2695.05 677.386 2694.66 677.101 2694.25 676.806 2687.72 672.052 2681.26 667.235 2675.03 662.094 2674.11 661.337 2673.19 660.584 2672.26 659.836 2669.53 657.629 2666.89 655.355 2664.3 652.989 2663.05 651.878 2661.75 650.844 2660.44 649.808 2657.53 647.462 2654.92 644.845 2652.31 642.172 2650.36 640.177 2648.36 638.289 2646.23 636.475 2644.02 634.551 2642.02 632.451 2640.12 630.231 2638.63 628.506 2637.05 626.894 2635.43 625.297 2633.55 623.434 2631.74 621.536 2630.02 619.519 2628.92 618.247 2627.78 617.014 2626.64 615.777 2624.14 613.043 2621.8 610.211 2619.48 607.333 2618.96 606.692 2618.44 606.053 2617.91 605.413 2612.44 598.723 2607.22 591.885 2602.19 584.854 2601.49 583.878 2600.79 582.905 2600.08 581.932 2597.12 577.824 2594.27 573.653 2591.5 569.411 2591.3 569.095 2591.09 568.78 2590.88 568.454 2586.95 562.432 2583.14 556.344 2579.48 550.15 2579.17 549.635 2578.87 549.12 2578.55 548.59 2556.28 510.901 2539.64 469.765 2525.39 421.742 2525.22 421.171 2525.22 421.171 2525.05 420.588 2524.75 419.521 2524.44 418.454 2524.14 417.385 2523.97 416.783 2523.8 416.18 2523.63 415.559 2523.27 414.025 2523.27 414.025 2523.27 412.001Z" fill="#21293A" fill-rule="evenodd"/></g></svg>